<?xml version="1.0" encoding="UTF-8"?>
<svg version="1.1" viewBox="0 0 125.6 142.9" xmlns="http://www.w3.org/2000/svg" xmlns:cc="http://creativecommons.org/ns#" xmlns:dc="http://purl.org/dc/elements/1.1/" xmlns:rdf="http://www.w3.org/1999/02/22-rdf-syntax-ns#">
 <metadata>
  <rdf:RDF>
   <cc:Work rdf:about="">
    <dc:format>image/svg+xml</dc:format>
    <dc:type rdf:resource="http://purl.org/dc/dcmitype/StillImage"/>
    <dc:title>Chrono</dc:title>
    <cc:license rdf:resource="http://creativecommons.org/licenses/by-sa/3.0/"/>
    <dc:creator>
     <cc:Agent>
      <dc:title>Rémi Dubot</dc:title>
     </cc:Agent>
    </dc:creator>
    <dc:subject>
     <rdf:Bag>
      <rdf:li>clip art; chrono</rdf:li>
     </rdf:Bag>
    </dc:subject>
   </cc:Work>
   <cc:License rdf:about="http://creativecommons.org/licenses/by-sa/3.0/">
    <cc:permits rdf:resource="http://creativecommons.org/ns#Reproduction"/>
    <cc:permits rdf:resource="http://creativecommons.org/ns#Distribution"/>
    <cc:requires rdf:resource="http://creativecommons.org/ns#Notice"/>
    <cc:requires rdf:resource="http://creativecommons.org/ns#Attribution"/>
    <cc:permits rdf:resource="http://creativecommons.org/ns#DerivativeWorks"/>
    <cc:requires rdf:resource="http://creativecommons.org/ns#ShareAlike"/>
   </cc:License>
  </rdf:RDF>
 </metadata>
 <g transform="translate(-169.31 -264.36)">
  <g transform="matrix(.5 -.86603 .86603 .5 -183.32 377.2)" stroke-width="1.4173">
   <path d="m232.4 277.4h5.264v12.195h-5.264z" fill="#4c4c4c" stroke="#9e9e9e"/>
   <path d="m243 277.36a8 2 0 0 1-8 2 8 2 0 0 1-8-2 8 2 0 0 1 8-2 8 2 0 0 1 8 2z" stroke="#000" stroke-linejoin="round"/>
  </g>
  <path d="m231 275.4h8v14h-8z"/>
  <path transform="matrix(1.5646 0 0 1.7628 -133.45 -221.97)" d="m242 279.86a6.5 3.5 0 0 1-6.5 3.5 6.5 3.5 0 0 1-6.5-3.5 6.5 3.5 0 0 1 6.5-3.5 6.5 3.5 0 0 1 6.5 3.5z" fill="none" stroke="#000"/>
  <g transform="matrix(.86603 .5 -.5 .86603 205.17 -70.962)" stroke-width="1.4173">
   <path d="m232.4 277.4h5.264v12.195h-5.264z" fill="#4c4c4c" stroke="#9e9e9e"/>
   <path d="m243 277.36a8 2 0 0 1-8 2 8 2 0 0 1-8-2 8 2 0 0 1 8-2 8 2 0 0 1 8 2z" stroke="#000" stroke-linejoin="round"/>
  </g>
  <path transform="matrix(1.294 0 0 1.294 1.1932 259.37)" d="m225.69 68a45 45 0 0 1-45 45 45 45 0 0 1-45-45 45 45 0 0 1 45-45 45 45 0 0 1 45 45z" fill="#c5c5c5" stroke="#000" stroke-linejoin="round" stroke-width="2.7383"/>
  <path transform="matrix(.86603 -.5 .5 .86603 0 0)" d="m28.8 363.3h2v8h-2z"/>
  <path transform="matrix(-.5 .86603 -.86603 -.5 0 0)" d="m182.3-432.2h2v8h-2z"/>
  <path transform="rotate(-90)" d="m-348.4 282h2v8h-2z"/>
  <path transform="matrix(.86603 -.5 .5 .86603 0 0)" d="m28.8 465.3h2v8h-2z"/>
  <path transform="matrix(-.5 -.86603 .86603 -.5 0 0)" d="m-419.3 76.8h2v8h-2z"/>
  <path transform="matrix(-.86603 -.5 .5 -.86603 0 0)" d="m-378.2-136.3h2v8h-2z"/>
  <path transform="matrix(.86603 .5 -.5 .86603 0 0)" d="m376.2 230.3h2v8h-2z"/>
  <path transform="rotate(90)" d="m346.4-188h2v8h-2z"/>
  <path transform="matrix(.5 .86603 -.86603 .5 0 0)" d="m417.3 17.2h2v8h-2z"/>
  <path transform="matrix(-.5 .86603 -.86603 -.5 0 0)" d="m182.3-330.2h2v8h-2z"/>
  <path d="m234 394.4h2v8h-2z"/>
  <path d="m234 292.4h2v8h-2z"/>
  <path d="m207.62 331.49 25.1 19.335 4.1946-7.2652z" fill="#fff" stroke="#000" stroke-linejoin="round" stroke-width=".5501"/>
  <path d="m235 294.14-2.0694 53.326h4.1388z" fill="#fff" stroke="#000" stroke-linejoin="round" stroke-width=".5035"/>
  <path transform="matrix(.66833 0 0 .66833 85.076 179.05)" d="m233.26 251.84a8.9333 8.9333 0 0 1-8.9333 8.9333 8.9333 8.9333 0 0 1-8.9333-8.9333 8.9333 8.9333 0 0 1 8.9333-8.9333 8.9333 8.9333 0 0 1 8.9333 8.9333z"/>
 </g>
</svg>